<svg xmlns="http://www.w3.org/2000/svg" width="720" height="460" viewBox="0 0 720 460" fill="none">
  <rect x="40" y="20" width="640" height="420" rx="16" fill="white" stroke="#E5E7EB"/>
  <rect x="40" y="20" width="640" height="60" rx="16" fill="#0F172A"/>
  <text x="60" y="58" font-size="24" fill="white" font-family="Arial, Helvetica, sans-serif">Factura #0001</text>
  <rect x="60" y="100" width="280" height="14" rx="7" fill="#E5E7EB"/>
  <rect x="60" y="122" width="220" height="12" rx="6" fill="#E5E7EB"/>
  <rect x="60" y="166" width="600" height="1" fill="#E5E7EB"/>
  <rect x="60" y="186" width="420" height="12" rx="6" fill="#E5E7EB"/>
  <rect x="520" y="186" width="140" height="12" rx="6" fill="#E5E7EB"/>
  <rect x="60" y="210" width="420" height="12" rx="6" fill="#E5E7EB"/>
  <rect x="520" y="210" width="140" height="12" rx="6" fill="#E5E7EB"/>
  <rect x="60" y="234" width="420" height="12" rx="6" fill="#E5E7EB"/>
  <rect x="520" y="234" width="140" height="12" rx="6" fill="#E5E7EB"/>
  <rect x="60" y="290" width="160" height="12" rx="6" fill="#E5E7EB"/>
  <rect x="240" y="290" width="160" height="12" rx="6" fill="#E5E7EB"/>
  <rect x="60" y="350" width="480" height="1" fill="#E5E7EB"/>
  <rect x="540" y="340" width="120" height="24" rx="12" fill="#10B981"/>
</svg>
